<svg xmlns="http://www.w3.org/2000/svg" xmlns:xlink="http://www.w3.org/1999/xlink" width="217" zoomAndPan="magnify" viewBox="0 0 162.75 34.499999" height="46" preserveAspectRatio="xMidYMid meet" version="1.0"><defs><g/><clipPath id="2fa6e311f4"><path d="M 1.039062 10 L 16 10 L 16 24 L 1.039062 24 Z M 1.039062 10 " clip-rule="nonzero"/></clipPath><clipPath id="8bbe0d2d2b"><path d="M 11.375 19.515625 L 24.730469 19.515625 L 24.730469 34.007812 L 11.375 34.007812 Z M 11.375 19.515625 " clip-rule="nonzero"/></clipPath><clipPath id="1cf6344cd6"><path d="M 20.554688 10.335938 L 35.046875 10.335938 L 35.046875 23.691406 L 20.554688 23.691406 Z M 20.554688 10.335938 " clip-rule="nonzero"/></clipPath></defs><g clip-path="url(#2fa6e311f4)"><path fill="#029544" d="M 11.394531 23.652344 L 7.6875 23.652344 C 4.023438 23.652344 1.039062 20.667969 1.039062 17.003906 C 1.039062 13.335938 4.023438 10.355469 7.6875 10.355469 L 11.394531 10.355469 L 11.394531 12.398438 C 11.394531 13.527344 12.308594 14.445312 13.4375 14.445312 L 7.6875 14.445312 C 6.277344 14.445312 5.128906 15.59375 5.128906 17.003906 C 5.128906 18.414062 6.277344 19.5625 7.6875 19.5625 L 13.4375 19.5625 C 14.570312 19.5625 15.484375 20.476562 15.484375 21.605469 C 15.484375 20.476562 14.570312 19.5625 13.4375 19.5625 C 12.308594 19.5625 11.394531 20.476562 11.394531 21.605469 L 11.394531 23.652344 " fill-opacity="1" fill-rule="nonzero"/></g><path fill="#ffb932" d="M 13.4375 14.445312 C 14.570312 14.445312 15.484375 13.527344 15.484375 12.398438 C 15.484375 11.269531 14.570312 10.355469 13.4375 10.355469 L 11.394531 10.355469 L 11.394531 6.648438 C 11.394531 2.980469 14.375 0 18.042969 0 C 21.710938 0 24.691406 2.980469 24.691406 6.648438 L 24.691406 10.355469 L 22.648438 10.355469 C 21.515625 10.355469 20.601562 11.269531 20.601562 12.398438 L 20.601562 6.648438 C 20.601562 5.238281 19.453125 4.089844 18.042969 4.089844 C 16.632812 4.089844 15.484375 5.238281 15.484375 6.648438 L 15.484375 12.398438 C 15.484375 13.527344 14.570312 14.445312 13.4375 14.445312 " fill-opacity="1" fill-rule="nonzero"/><path fill="#026c0d" d="M 13.4375 14.445312 C 12.308594 14.445312 11.394531 13.527344 11.394531 12.398438 L 11.394531 10.355469 L 13.4375 10.355469 C 14.570312 10.355469 15.484375 11.269531 15.484375 12.398438 C 15.484375 13.527344 14.570312 14.445312 13.4375 14.445312 " fill-opacity="1" fill-rule="nonzero"/><g clip-path="url(#8bbe0d2d2b)"><path fill="#ea4f93" d="M 18.042969 34.007812 C 14.375 34.007812 11.394531 31.023438 11.394531 27.355469 L 11.394531 23.652344 L 13.4375 23.652344 C 14.570312 23.652344 15.484375 22.734375 15.484375 21.605469 L 15.484375 27.355469 C 15.484375 28.769531 16.632812 29.914062 18.042969 29.914062 C 19.453125 29.914062 20.601562 28.769531 20.601562 27.355469 L 20.601562 21.605469 C 20.601562 20.476562 21.515625 19.5625 22.648438 19.5625 C 21.515625 19.5625 20.601562 20.476562 20.601562 21.605469 C 20.601562 22.734375 21.515625 23.652344 22.648438 23.652344 L 24.691406 23.652344 L 24.691406 27.355469 C 24.691406 31.023438 21.710938 34.007812 18.042969 34.007812 " fill-opacity="1" fill-rule="nonzero"/></g><path fill="#022e27" d="M 13.4375 23.652344 L 11.394531 23.652344 L 11.394531 21.605469 C 11.394531 20.476562 12.308594 19.5625 13.4375 19.5625 C 14.570312 19.5625 15.484375 20.476562 15.484375 21.605469 C 15.484375 22.734375 14.570312 23.652344 13.4375 23.652344 " fill-opacity="1" fill-rule="nonzero"/><g clip-path="url(#1cf6344cd6)"><path fill="#28beea" d="M 28.398438 23.652344 L 24.691406 23.652344 L 24.691406 21.605469 C 24.691406 20.476562 23.777344 19.5625 22.648438 19.5625 L 28.398438 19.5625 C 29.808594 19.5625 30.957031 18.414062 30.957031 17.003906 C 30.957031 15.59375 29.808594 14.445312 28.398438 14.445312 L 22.648438 14.445312 C 21.515625 14.445312 20.601562 13.527344 20.601562 12.398438 C 20.601562 13.527344 21.515625 14.445312 22.648438 14.445312 C 23.777344 14.445312 24.691406 13.527344 24.691406 12.398438 L 24.691406 10.355469 L 28.398438 10.355469 C 32.0625 10.355469 35.046875 13.335938 35.046875 17.003906 C 35.046875 20.667969 32.0625 23.652344 28.398438 23.652344 " fill-opacity="1" fill-rule="nonzero"/></g><path fill="#288a2e" d="M 22.648438 14.445312 C 21.515625 14.445312 20.601562 13.527344 20.601562 12.398438 C 20.601562 11.269531 21.515625 10.355469 22.648438 10.355469 L 24.691406 10.355469 L 24.691406 12.398438 C 24.691406 13.527344 23.777344 14.445312 22.648438 14.445312 " fill-opacity="1" fill-rule="nonzero"/><path fill="#253b87" d="M 24.691406 23.652344 L 22.648438 23.652344 C 21.515625 23.652344 20.601562 22.734375 20.601562 21.605469 C 20.601562 20.476562 21.515625 19.5625 22.648438 19.5625 C 23.777344 19.5625 24.691406 20.476562 24.691406 21.605469 L 24.691406 23.652344 " fill-opacity="1" fill-rule="nonzero"/><g fill="#022179" fill-opacity="1"><g transform="translate(35.675993, 20.163773)"><g><path d="M 3.734375 0.09375 C 3.253906 0.09375 2.8125 0.015625 2.40625 -0.140625 C 2 -0.296875 1.644531 -0.519531 1.34375 -0.8125 C 1.039062 -1.113281 0.804688 -1.46875 0.640625 -1.875 C 0.472656 -2.289062 0.390625 -2.753906 0.390625 -3.265625 C 0.390625 -3.773438 0.472656 -4.234375 0.640625 -4.640625 C 0.804688 -5.054688 1.039062 -5.410156 1.34375 -5.703125 C 1.644531 -5.992188 2 -6.21875 2.40625 -6.375 C 2.8125 -6.53125 3.253906 -6.609375 3.734375 -6.609375 C 4.222656 -6.609375 4.671875 -6.53125 5.078125 -6.375 C 5.484375 -6.21875 5.835938 -5.988281 6.140625 -5.6875 C 6.441406 -5.394531 6.664062 -5.046875 6.8125 -4.640625 L 5.5625 -4.171875 C 5.457031 -4.421875 5.316406 -4.632812 5.140625 -4.8125 C 4.960938 -5 4.753906 -5.140625 4.515625 -5.234375 C 4.273438 -5.328125 4.015625 -5.375 3.734375 -5.375 C 3.453125 -5.375 3.191406 -5.320312 2.953125 -5.21875 C 2.710938 -5.125 2.5 -4.988281 2.3125 -4.8125 C 2.132812 -4.632812 1.992188 -4.414062 1.890625 -4.15625 C 1.796875 -3.894531 1.75 -3.597656 1.75 -3.265625 C 1.75 -2.929688 1.796875 -2.632812 1.890625 -2.375 C 1.992188 -2.113281 2.132812 -1.894531 2.3125 -1.71875 C 2.5 -1.539062 2.710938 -1.398438 2.953125 -1.296875 C 3.191406 -1.203125 3.453125 -1.15625 3.734375 -1.15625 C 4.015625 -1.15625 4.273438 -1.203125 4.515625 -1.296875 C 4.753906 -1.390625 4.960938 -1.523438 5.140625 -1.703125 C 5.316406 -1.890625 5.457031 -2.109375 5.5625 -2.359375 L 6.8125 -1.890625 C 6.664062 -1.484375 6.441406 -1.128906 6.140625 -0.828125 C 5.835938 -0.535156 5.484375 -0.304688 5.078125 -0.140625 C 4.671875 0.015625 4.222656 0.09375 3.734375 0.09375 Z M 3.734375 0.09375 "/></g></g></g><g fill="#022179" fill-opacity="1"><g transform="translate(43.072056, 20.163773)"><g><path d="M 5.21875 0 L 4.734375 -1.34375 L 2 -1.34375 L 1.515625 0 L 0.140625 0 L 2.53125 -6.53125 L 4.203125 -6.53125 L 6.59375 0 Z M 2.390625 -2.484375 L 4.34375 -2.484375 L 3.375 -5.25 Z M 2.390625 -2.484375 "/></g></g></g><g fill="#022179" fill-opacity="1"><g transform="translate(50.116069, 20.163773)"><g><path d="M 4.296875 0 L 2.765625 -2.40625 L 2.203125 -2.40625 L 2.203125 0 L 0.84375 0 L 0.84375 -6.53125 L 2.984375 -6.53125 C 3.265625 -6.53125 3.503906 -6.515625 3.703125 -6.484375 C 3.898438 -6.460938 4.070312 -6.429688 4.21875 -6.390625 C 4.363281 -6.359375 4.488281 -6.3125 4.59375 -6.25 C 4.914062 -6.082031 5.144531 -5.847656 5.28125 -5.546875 C 5.425781 -5.242188 5.5 -4.898438 5.5 -4.515625 C 5.5 -4.109375 5.425781 -3.75 5.28125 -3.4375 C 5.132812 -3.125 4.898438 -2.878906 4.578125 -2.703125 C 4.453125 -2.640625 4.3125 -2.582031 4.15625 -2.53125 L 5.890625 0 Z M 2.203125 -5.390625 L 2.203125 -3.46875 L 2.796875 -3.46875 C 3.054688 -3.46875 3.265625 -3.476562 3.421875 -3.5 C 3.578125 -3.519531 3.703125 -3.566406 3.796875 -3.640625 C 4.015625 -3.785156 4.125 -4.050781 4.125 -4.4375 C 4.125 -4.613281 4.097656 -4.765625 4.046875 -4.890625 C 3.992188 -5.023438 3.921875 -5.128906 3.828125 -5.203125 C 3.722656 -5.285156 3.585938 -5.335938 3.421875 -5.359375 C 3.265625 -5.378906 3.054688 -5.390625 2.796875 -5.390625 Z M 2.203125 -5.390625 "/></g></g></g><g fill="#022179" fill-opacity="1"><g transform="translate(56.564302, 20.163773)"><g><path d="M 4.625 -5.328125 L 2.203125 -5.328125 L 2.203125 -3.859375 L 4.359375 -3.859375 L 4.359375 -2.671875 L 2.203125 -2.671875 L 2.203125 -1.203125 L 4.625 -1.203125 L 4.625 0 L 0.84375 0 L 0.84375 -6.53125 L 4.625 -6.53125 Z M 4.625 -5.328125 "/></g></g></g><g fill="#022179" fill-opacity="1"><g transform="translate(62.05568, 20.163773)"><g><path d="M 4.625 -6.234375 C 4.925781 -6.066406 5.144531 -5.835938 5.28125 -5.546875 C 5.425781 -5.265625 5.5 -4.929688 5.5 -4.546875 C 5.5 -4.148438 5.425781 -3.789062 5.28125 -3.46875 C 5.144531 -3.144531 4.925781 -2.890625 4.625 -2.703125 C 4.445312 -2.585938 4.226562 -2.5 3.96875 -2.4375 C 3.71875 -2.375 3.390625 -2.34375 2.984375 -2.34375 L 2.203125 -2.34375 L 2.203125 0 L 0.84375 0 L 0.84375 -6.53125 L 2.984375 -6.53125 C 3.378906 -6.53125 3.707031 -6.503906 3.96875 -6.453125 C 4.226562 -6.398438 4.445312 -6.328125 4.625 -6.234375 Z M 3.859375 -3.703125 C 3.941406 -3.773438 4.003906 -3.867188 4.046875 -3.984375 C 4.097656 -4.109375 4.125 -4.265625 4.125 -4.453125 C 4.125 -4.640625 4.097656 -4.789062 4.046875 -4.90625 C 3.992188 -5.03125 3.925781 -5.125 3.84375 -5.1875 C 3.726562 -5.28125 3.582031 -5.335938 3.40625 -5.359375 C 3.238281 -5.378906 3.035156 -5.390625 2.796875 -5.390625 L 2.203125 -5.390625 L 2.203125 -3.46875 L 2.796875 -3.46875 C 3.046875 -3.46875 3.253906 -3.484375 3.421875 -3.515625 C 3.597656 -3.546875 3.742188 -3.609375 3.859375 -3.703125 Z M 3.859375 -3.703125 "/></g></g></g><g fill="#022179" fill-opacity="1"><g transform="translate(68.165403, 20.163773)"><g><path d="M 2.203125 -1.203125 L 4.25 -1.203125 L 4.25 0 L 0.84375 0 L 0.84375 -6.53125 L 2.203125 -6.53125 Z M 2.203125 -1.203125 "/></g></g></g><g fill="#022179" fill-opacity="1"><g transform="translate(72.912057, 20.163773)"><g><path d="M 3.265625 0.09375 C 2.898438 0.09375 2.5625 0.046875 2.25 -0.046875 C 1.945312 -0.140625 1.675781 -0.28125 1.4375 -0.46875 C 1.207031 -0.664062 1.023438 -0.914062 0.890625 -1.21875 C 0.765625 -1.519531 0.703125 -1.875 0.703125 -2.28125 L 0.703125 -6.53125 L 2.0625 -6.53125 L 2.0625 -2.46875 C 2.0625 -2.132812 2.113281 -1.867188 2.21875 -1.671875 C 2.332031 -1.472656 2.476562 -1.328125 2.65625 -1.234375 C 2.832031 -1.148438 3.035156 -1.109375 3.265625 -1.109375 C 3.484375 -1.109375 3.679688 -1.148438 3.859375 -1.234375 C 4.046875 -1.328125 4.191406 -1.472656 4.296875 -1.671875 C 4.410156 -1.878906 4.46875 -2.144531 4.46875 -2.46875 L 4.46875 -6.53125 L 5.828125 -6.53125 L 5.828125 -2.28125 C 5.828125 -1.875 5.757812 -1.519531 5.625 -1.21875 C 5.488281 -0.914062 5.304688 -0.664062 5.078125 -0.46875 C 4.847656 -0.28125 4.578125 -0.140625 4.265625 -0.046875 C 3.953125 0.046875 3.617188 0.09375 3.265625 0.09375 Z M 3.265625 0.09375 "/></g></g></g><g fill="#022179" fill-opacity="1"><g transform="translate(79.752963, 20.163773)"><g><path d="M 3.015625 0.09375 C 2.660156 0.09375 2.332031 0.0507812 2.03125 -0.03125 C 1.726562 -0.113281 1.457031 -0.234375 1.21875 -0.390625 C 0.976562 -0.554688 0.78125 -0.753906 0.625 -0.984375 C 0.46875 -1.222656 0.367188 -1.5 0.328125 -1.8125 L 1.65625 -2.109375 C 1.757812 -1.734375 1.929688 -1.457031 2.171875 -1.28125 C 2.410156 -1.101562 2.703125 -1.015625 3.046875 -1.015625 C 3.234375 -1.015625 3.40625 -1.039062 3.5625 -1.09375 C 3.71875 -1.15625 3.835938 -1.242188 3.921875 -1.359375 C 4.015625 -1.472656 4.054688 -1.613281 4.046875 -1.78125 C 4.046875 -1.945312 4.003906 -2.082031 3.921875 -2.1875 C 3.835938 -2.300781 3.722656 -2.394531 3.578125 -2.46875 C 3.441406 -2.550781 3.28125 -2.617188 3.09375 -2.671875 C 2.914062 -2.734375 2.726562 -2.796875 2.53125 -2.859375 C 2.332031 -2.921875 2.140625 -2.984375 1.953125 -3.046875 C 1.765625 -3.117188 1.585938 -3.203125 1.421875 -3.296875 C 1.253906 -3.390625 1.101562 -3.5 0.96875 -3.625 C 0.832031 -3.757812 0.726562 -3.914062 0.65625 -4.09375 C 0.582031 -4.269531 0.546875 -4.484375 0.546875 -4.734375 C 0.546875 -5.035156 0.601562 -5.300781 0.71875 -5.53125 C 0.832031 -5.757812 0.992188 -5.953125 1.203125 -6.109375 C 1.410156 -6.273438 1.65625 -6.398438 1.9375 -6.484375 C 2.21875 -6.566406 2.519531 -6.609375 2.84375 -6.609375 C 3.132812 -6.609375 3.414062 -6.578125 3.6875 -6.515625 C 3.96875 -6.460938 4.222656 -6.367188 4.453125 -6.234375 C 4.691406 -6.097656 4.894531 -5.921875 5.0625 -5.703125 C 5.226562 -5.484375 5.347656 -5.21875 5.421875 -4.90625 L 4.1875 -4.59375 C 4.082031 -4.90625 3.921875 -5.132812 3.703125 -5.28125 C 3.492188 -5.4375 3.238281 -5.515625 2.9375 -5.515625 C 2.75 -5.515625 2.578125 -5.488281 2.421875 -5.4375 C 2.273438 -5.382812 2.15625 -5.300781 2.0625 -5.1875 C 1.96875 -5.082031 1.921875 -4.945312 1.921875 -4.78125 C 1.921875 -4.644531 1.957031 -4.53125 2.03125 -4.4375 C 2.101562 -4.34375 2.203125 -4.257812 2.328125 -4.1875 C 2.460938 -4.125 2.613281 -4.066406 2.78125 -4.015625 C 2.945312 -3.960938 3.117188 -3.910156 3.296875 -3.859375 C 3.492188 -3.796875 3.691406 -3.726562 3.890625 -3.65625 C 4.097656 -3.582031 4.296875 -3.5 4.484375 -3.40625 C 4.671875 -3.3125 4.835938 -3.191406 4.984375 -3.046875 C 5.128906 -2.910156 5.242188 -2.742188 5.328125 -2.546875 C 5.410156 -2.359375 5.453125 -2.128906 5.453125 -1.859375 C 5.453125 -1.546875 5.390625 -1.269531 5.265625 -1.03125 C 5.148438 -0.789062 4.984375 -0.585938 4.765625 -0.421875 C 4.546875 -0.253906 4.285156 -0.125 3.984375 -0.03125 C 3.691406 0.0507812 3.367188 0.09375 3.015625 0.09375 Z M 3.015625 0.09375 "/></g></g></g><g fill="#000000" fill-opacity="1"><g transform="translate(34.403238, 24.184908)"><g><path d="M 2.8125 0 L 2.546875 -0.71875 L 1.078125 -0.71875 L 0.8125 0 L 0.078125 0 L 1.375 -3.515625 L 2.265625 -3.515625 L 3.5625 0 Z M 1.296875 -1.34375 L 2.34375 -1.34375 L 1.8125 -2.828125 Z M 1.296875 -1.34375 "/></g></g></g><g fill="#000000" fill-opacity="1"><g transform="translate(38.196527, 24.184908)"><g><path d="M 0.453125 0 L 0.453125 -3.515625 L 1.734375 -3.515625 C 2.015625 -3.515625 2.257812 -3.472656 2.46875 -3.390625 C 2.675781 -3.304688 2.847656 -3.1875 2.984375 -3.03125 C 3.128906 -2.875 3.234375 -2.6875 3.296875 -2.46875 C 3.367188 -2.257812 3.40625 -2.023438 3.40625 -1.765625 C 3.40625 -1.492188 3.367188 -1.25 3.296875 -1.03125 C 3.234375 -0.820312 3.128906 -0.640625 2.984375 -0.484375 C 2.847656 -0.328125 2.675781 -0.207031 2.46875 -0.125 C 2.257812 -0.0390625 2.015625 0 1.734375 0 Z M 1.1875 -0.640625 L 1.6875 -0.640625 C 2.007812 -0.640625 2.25 -0.738281 2.40625 -0.9375 C 2.5625 -1.132812 2.640625 -1.410156 2.640625 -1.765625 C 2.640625 -2.117188 2.5625 -2.390625 2.40625 -2.578125 C 2.25 -2.773438 2.007812 -2.875 1.6875 -2.875 L 1.1875 -2.875 Z M 1.1875 -0.640625 "/></g></g></g><g fill="#000000" fill-opacity="1"><g transform="translate(41.994677, 24.184908)"><g><path d="M 4.484375 0 L 3.75 0 L 3.53125 -2.65625 L 2.640625 0 L 2.15625 0 L 1.265625 -2.65625 L 1.046875 0 L 0.3125 0 L 0.609375 -3.515625 L 1.640625 -3.515625 L 2.390625 -1.3125 L 3.15625 -3.515625 L 4.203125 -3.515625 Z M 4.484375 0 "/></g></g></g><g fill="#000000" fill-opacity="1"><g transform="translate(46.952228, 24.184908)"><g><path d="M 0.453125 0 L 0.453125 -3.515625 L 1.1875 -3.515625 L 1.1875 0 Z M 0.453125 0 "/></g></g></g><g fill="#000000" fill-opacity="1"><g transform="translate(48.757278, 24.184908)"><g><path d="M 2.859375 -3.515625 L 3.578125 -3.515625 L 3.578125 0 L 2.734375 0 L 1.1875 -2.515625 L 1.1875 0 L 0.453125 0 L 0.453125 -3.515625 L 1.296875 -3.515625 L 2.859375 -1.015625 Z M 2.859375 -3.515625 "/></g></g></g><g fill="#000000" fill-opacity="1"><g transform="translate(52.96134, 24.184908)"><g/></g></g><g fill="#000000" fill-opacity="1"><g transform="translate(54.423674, 24.184908)"><g><path d="M 0.453125 0 L 0.453125 -3.515625 L 1.734375 -3.515625 C 2.015625 -3.515625 2.257812 -3.472656 2.46875 -3.390625 C 2.675781 -3.304688 2.847656 -3.1875 2.984375 -3.03125 C 3.128906 -2.875 3.234375 -2.6875 3.296875 -2.46875 C 3.367188 -2.257812 3.40625 -2.023438 3.40625 -1.765625 C 3.40625 -1.492188 3.367188 -1.25 3.296875 -1.03125 C 3.234375 -0.820312 3.128906 -0.640625 2.984375 -0.484375 C 2.847656 -0.328125 2.675781 -0.207031 2.46875 -0.125 C 2.257812 -0.0390625 2.015625 0 1.734375 0 Z M 1.1875 -0.640625 L 1.6875 -0.640625 C 2.007812 -0.640625 2.25 -0.738281 2.40625 -0.9375 C 2.5625 -1.132812 2.640625 -1.410156 2.640625 -1.765625 C 2.640625 -2.117188 2.5625 -2.390625 2.40625 -2.578125 C 2.25 -2.773438 2.007812 -2.875 1.6875 -2.875 L 1.1875 -2.875 Z M 1.1875 -0.640625 "/></g></g></g><g fill="#000000" fill-opacity="1"><g transform="translate(58.221824, 24.184908)"><g><path d="M 2.8125 0 L 2.546875 -0.71875 L 1.078125 -0.71875 L 0.8125 0 L 0.078125 0 L 1.375 -3.515625 L 2.265625 -3.515625 L 3.5625 0 Z M 1.296875 -1.34375 L 2.34375 -1.34375 L 1.8125 -2.828125 Z M 1.296875 -1.34375 "/></g></g></g><g fill="#000000" fill-opacity="1"><g transform="translate(62.015112, 24.184908)"><g><path d="M 1.625 0.046875 C 1.4375 0.046875 1.257812 0.0234375 1.09375 -0.015625 C 0.925781 -0.0546875 0.78125 -0.117188 0.65625 -0.203125 C 0.53125 -0.296875 0.425781 -0.40625 0.34375 -0.53125 C 0.257812 -0.65625 0.203125 -0.800781 0.171875 -0.96875 L 0.890625 -1.140625 C 0.941406 -0.941406 1.03125 -0.789062 1.15625 -0.6875 C 1.289062 -0.59375 1.453125 -0.546875 1.640625 -0.546875 C 1.742188 -0.546875 1.835938 -0.5625 1.921875 -0.59375 C 2.003906 -0.625 2.066406 -0.671875 2.109375 -0.734375 C 2.160156 -0.796875 2.1875 -0.875 2.1875 -0.96875 C 2.1875 -1.050781 2.160156 -1.117188 2.109375 -1.171875 C 2.066406 -1.234375 2.003906 -1.285156 1.921875 -1.328125 C 1.847656 -1.367188 1.765625 -1.40625 1.671875 -1.4375 C 1.578125 -1.476562 1.472656 -1.515625 1.359375 -1.546875 C 1.253906 -1.578125 1.148438 -1.609375 1.046875 -1.640625 C 0.953125 -1.679688 0.859375 -1.726562 0.765625 -1.78125 C 0.671875 -1.832031 0.585938 -1.890625 0.515625 -1.953125 C 0.453125 -2.023438 0.398438 -2.109375 0.359375 -2.203125 C 0.316406 -2.296875 0.296875 -2.410156 0.296875 -2.546875 C 0.296875 -2.710938 0.328125 -2.859375 0.390625 -2.984375 C 0.453125 -3.109375 0.535156 -3.210938 0.640625 -3.296875 C 0.753906 -3.378906 0.882812 -3.441406 1.03125 -3.484375 C 1.1875 -3.535156 1.351562 -3.5625 1.53125 -3.5625 C 1.6875 -3.5625 1.835938 -3.546875 1.984375 -3.515625 C 2.140625 -3.484375 2.28125 -3.429688 2.40625 -3.359375 C 2.53125 -3.285156 2.632812 -3.1875 2.71875 -3.0625 C 2.8125 -2.945312 2.878906 -2.804688 2.921875 -2.640625 L 2.25 -2.484375 C 2.195312 -2.648438 2.113281 -2.769531 2 -2.84375 C 1.882812 -2.925781 1.742188 -2.96875 1.578125 -2.96875 C 1.484375 -2.96875 1.394531 -2.953125 1.3125 -2.921875 C 1.226562 -2.898438 1.160156 -2.859375 1.109375 -2.796875 C 1.054688 -2.742188 1.03125 -2.671875 1.03125 -2.578125 C 1.03125 -2.503906 1.050781 -2.441406 1.09375 -2.390625 C 1.132812 -2.335938 1.1875 -2.289062 1.25 -2.25 C 1.320312 -2.21875 1.398438 -2.1875 1.484375 -2.15625 C 1.578125 -2.132812 1.675781 -2.109375 1.78125 -2.078125 C 1.882812 -2.046875 1.988281 -2.007812 2.09375 -1.96875 C 2.207031 -1.9375 2.3125 -1.890625 2.40625 -1.828125 C 2.507812 -1.773438 2.597656 -1.710938 2.671875 -1.640625 C 2.753906 -1.566406 2.816406 -1.476562 2.859375 -1.375 C 2.910156 -1.269531 2.9375 -1.144531 2.9375 -1 C 2.9375 -0.832031 2.90625 -0.679688 2.84375 -0.546875 C 2.78125 -0.421875 2.6875 -0.3125 2.5625 -0.21875 C 2.445312 -0.132812 2.304688 -0.0664062 2.140625 -0.015625 C 1.984375 0.0234375 1.8125 0.046875 1.625 0.046875 Z M 1.625 0.046875 "/></g></g></g><g fill="#000000" fill-opacity="1"><g transform="translate(65.336861, 24.184908)"><g><path d="M 0.453125 0 L 0.453125 -3.515625 L 1.1875 -3.515625 L 1.1875 -2.078125 L 2.671875 -2.078125 L 2.671875 -3.515625 L 3.40625 -3.515625 L 3.40625 0 L 2.671875 0 L 2.671875 -1.453125 L 1.1875 -1.453125 L 1.1875 0 Z M 0.453125 0 "/></g></g></g><g fill="#000000" fill-opacity="1"><g transform="translate(69.358626, 24.184908)"><g><path d="M 2.34375 -1.859375 C 2.476562 -1.816406 2.59375 -1.757812 2.6875 -1.6875 C 2.789062 -1.613281 2.867188 -1.519531 2.921875 -1.40625 C 2.972656 -1.289062 3 -1.148438 3 -0.984375 C 3 -0.785156 2.957031 -0.613281 2.875 -0.46875 C 2.800781 -0.320312 2.679688 -0.207031 2.515625 -0.125 C 2.359375 -0.0390625 2.15625 0 1.90625 0 L 0.453125 0 L 0.453125 -3.515625 L 1.59375 -3.515625 C 1.84375 -3.515625 2.050781 -3.472656 2.21875 -3.390625 C 2.394531 -3.316406 2.523438 -3.207031 2.609375 -3.0625 C 2.703125 -2.925781 2.75 -2.753906 2.75 -2.546875 C 2.75 -2.398438 2.710938 -2.265625 2.640625 -2.140625 C 2.578125 -2.015625 2.476562 -1.921875 2.34375 -1.859375 Z M 1.59375 -2.90625 L 1.15625 -2.90625 L 1.15625 -2.078125 L 1.640625 -2.078125 C 1.734375 -2.078125 1.8125 -2.09375 1.875 -2.125 C 1.945312 -2.164062 2 -2.21875 2.03125 -2.28125 C 2.0625 -2.351562 2.078125 -2.425781 2.078125 -2.5 C 2.078125 -2.625 2.035156 -2.722656 1.953125 -2.796875 C 1.878906 -2.867188 1.757812 -2.90625 1.59375 -2.90625 Z M 1.765625 -0.625 C 1.898438 -0.625 2.003906 -0.644531 2.078125 -0.6875 C 2.160156 -0.726562 2.21875 -0.78125 2.25 -0.84375 C 2.28125 -0.914062 2.296875 -0.988281 2.296875 -1.0625 C 2.296875 -1.144531 2.273438 -1.21875 2.234375 -1.28125 C 2.203125 -1.351562 2.144531 -1.410156 2.0625 -1.453125 C 1.988281 -1.492188 1.882812 -1.515625 1.75 -1.515625 L 1.15625 -1.515625 L 1.15625 -0.625 Z M 1.765625 -0.625 "/></g></g></g><g fill="#000000" fill-opacity="1"><g transform="translate(72.724127, 24.184908)"><g><path d="M 2.015625 0.046875 C 1.753906 0.046875 1.515625 0.00390625 1.296875 -0.078125 C 1.078125 -0.160156 0.882812 -0.28125 0.71875 -0.4375 C 0.5625 -0.59375 0.4375 -0.78125 0.34375 -1 C 0.257812 -1.226562 0.21875 -1.484375 0.21875 -1.765625 C 0.21875 -2.035156 0.257812 -2.28125 0.34375 -2.5 C 0.4375 -2.726562 0.5625 -2.921875 0.71875 -3.078125 C 0.882812 -3.234375 1.078125 -3.351562 1.296875 -3.4375 C 1.515625 -3.519531 1.753906 -3.5625 2.015625 -3.5625 C 2.273438 -3.5625 2.507812 -3.519531 2.71875 -3.4375 C 2.9375 -3.351562 3.128906 -3.234375 3.296875 -3.078125 C 3.460938 -2.921875 3.585938 -2.726562 3.671875 -2.5 C 3.765625 -2.28125 3.8125 -2.035156 3.8125 -1.765625 C 3.8125 -1.484375 3.765625 -1.226562 3.671875 -1 C 3.585938 -0.78125 3.460938 -0.59375 3.296875 -0.4375 C 3.128906 -0.28125 2.9375 -0.160156 2.71875 -0.078125 C 2.507812 0.00390625 2.273438 0.046875 2.015625 0.046875 Z M 2.015625 -0.625 C 2.160156 -0.625 2.296875 -0.648438 2.421875 -0.703125 C 2.554688 -0.753906 2.671875 -0.828125 2.765625 -0.921875 C 2.867188 -1.023438 2.945312 -1.144531 3 -1.28125 C 3.050781 -1.414062 3.078125 -1.578125 3.078125 -1.765625 C 3.078125 -1.941406 3.050781 -2.097656 3 -2.234375 C 2.945312 -2.378906 2.867188 -2.5 2.765625 -2.59375 C 2.671875 -2.6875 2.554688 -2.757812 2.421875 -2.8125 C 2.296875 -2.863281 2.160156 -2.890625 2.015625 -2.890625 C 1.859375 -2.890625 1.710938 -2.863281 1.578125 -2.8125 C 1.453125 -2.757812 1.34375 -2.6875 1.25 -2.59375 C 1.15625 -2.5 1.078125 -2.378906 1.015625 -2.234375 C 0.960938 -2.097656 0.9375 -1.941406 0.9375 -1.765625 C 0.9375 -1.578125 0.960938 -1.414062 1.015625 -1.28125 C 1.078125 -1.144531 1.15625 -1.023438 1.25 -0.921875 C 1.34375 -0.828125 1.453125 -0.753906 1.578125 -0.703125 C 1.710938 -0.648438 1.859375 -0.625 2.015625 -0.625 Z M 2.015625 -0.625 "/></g></g></g><g fill="#000000" fill-opacity="1"><g transform="translate(76.913604, 24.184908)"><g><path d="M 2.8125 0 L 2.546875 -0.71875 L 1.078125 -0.71875 L 0.8125 0 L 0.078125 0 L 1.375 -3.515625 L 2.265625 -3.515625 L 3.5625 0 Z M 1.296875 -1.34375 L 2.34375 -1.34375 L 1.8125 -2.828125 Z M 1.296875 -1.34375 "/></g></g></g><g fill="#000000" fill-opacity="1"><g transform="translate(80.706892, 24.184908)"><g><path d="M 2.3125 0 L 1.5 -1.296875 L 1.1875 -1.296875 L 1.1875 0 L 0.453125 0 L 0.453125 -3.515625 L 1.609375 -3.515625 C 1.753906 -3.515625 1.878906 -3.507812 1.984375 -3.5 C 2.097656 -3.488281 2.191406 -3.472656 2.265625 -3.453125 C 2.347656 -3.429688 2.421875 -3.40625 2.484375 -3.375 C 2.648438 -3.28125 2.769531 -3.148438 2.84375 -2.984375 C 2.925781 -2.828125 2.96875 -2.644531 2.96875 -2.4375 C 2.96875 -2.21875 2.925781 -2.019531 2.84375 -1.84375 C 2.769531 -1.675781 2.644531 -1.546875 2.46875 -1.453125 C 2.394531 -1.421875 2.316406 -1.390625 2.234375 -1.359375 L 3.171875 0 Z M 1.1875 -2.90625 L 1.1875 -1.875 L 1.515625 -1.875 C 1.648438 -1.875 1.757812 -1.878906 1.84375 -1.890625 C 1.925781 -1.898438 1.992188 -1.921875 2.046875 -1.953125 C 2.171875 -2.035156 2.234375 -2.179688 2.234375 -2.390625 C 2.234375 -2.484375 2.21875 -2.566406 2.1875 -2.640625 C 2.15625 -2.710938 2.113281 -2.765625 2.0625 -2.796875 C 2.007812 -2.835938 1.9375 -2.863281 1.84375 -2.875 C 1.757812 -2.894531 1.648438 -2.90625 1.515625 -2.90625 Z M 1.1875 -2.90625 "/></g></g></g><g fill="#000000" fill-opacity="1"><g transform="translate(84.179339, 24.184908)"><g><path d="M 0.453125 0 L 0.453125 -3.515625 L 1.734375 -3.515625 C 2.015625 -3.515625 2.257812 -3.472656 2.46875 -3.390625 C 2.675781 -3.304688 2.847656 -3.1875 2.984375 -3.03125 C 3.128906 -2.875 3.234375 -2.6875 3.296875 -2.46875 C 3.367188 -2.257812 3.40625 -2.023438 3.40625 -1.765625 C 3.40625 -1.492188 3.367188 -1.25 3.296875 -1.03125 C 3.234375 -0.820312 3.128906 -0.640625 2.984375 -0.484375 C 2.847656 -0.328125 2.675781 -0.207031 2.46875 -0.125 C 2.257812 -0.0390625 2.015625 0 1.734375 0 Z M 1.1875 -0.640625 L 1.6875 -0.640625 C 2.007812 -0.640625 2.25 -0.738281 2.40625 -0.9375 C 2.5625 -1.132812 2.640625 -1.410156 2.640625 -1.765625 C 2.640625 -2.117188 2.5625 -2.390625 2.40625 -2.578125 C 2.25 -2.773438 2.007812 -2.875 1.6875 -2.875 L 1.1875 -2.875 Z M 1.1875 -0.640625 "/></g></g></g></svg>