<svg xmlns="http://www.w3.org/2000/svg" xmlns:xlink="http://www.w3.org/1999/xlink" width="500" zoomAndPan="magnify" viewBox="0 0 375 374.999991" height="500" preserveAspectRatio="xMidYMid meet" version="1.0"><defs><g/><clipPath id="7f233333f6"><path d="M 37.5 133 L 115 133 L 115 205 L 37.5 205 Z M 37.5 133 " clip-rule="nonzero"/></clipPath><clipPath id="0fc8cba0a5"><path d="M 92 78.742188 L 164 78.742188 L 164 156 L 92 156 Z M 92 78.742188 " clip-rule="nonzero"/></clipPath><clipPath id="2c6f495266"><path d="M 92.4375 182.476562 L 163.414062 182.476562 L 163.414062 259.488281 L 92.4375 259.488281 Z M 92.4375 182.476562 " clip-rule="nonzero"/></clipPath><clipPath id="7850c0307a"><path d="M 141.234375 133.679688 L 218.25 133.679688 L 218.25 204.65625 L 141.234375 204.65625 Z M 141.234375 133.679688 " clip-rule="nonzero"/></clipPath></defs><g clip-path="url(#7f233333f6)"><path fill="#029544" d="M 92.535156 204.457031 L 72.839844 204.457031 C 53.355469 204.457031 37.5 188.601562 37.5 169.117188 C 37.5 149.628906 53.355469 133.773438 72.839844 133.773438 L 92.535156 133.773438 L 92.535156 144.648438 C 92.535156 150.652344 97.402344 155.519531 103.40625 155.519531 L 72.839844 155.519531 C 65.34375 155.519531 59.242188 161.621094 59.242188 169.117188 C 59.242188 176.609375 65.34375 182.710938 72.839844 182.710938 L 103.40625 182.710938 C 109.410156 182.710938 114.28125 187.578125 114.28125 193.582031 C 114.28125 187.578125 109.410156 182.710938 103.40625 182.710938 C 97.402344 182.710938 92.535156 187.578125 92.535156 193.582031 L 92.535156 204.457031 " fill-opacity="1" fill-rule="nonzero"/></g><g clip-path="url(#0fc8cba0a5)"><path fill="#ffb932" d="M 103.40625 155.519531 C 109.410156 155.519531 114.28125 150.652344 114.28125 144.648438 C 114.28125 138.644531 109.410156 133.773438 103.40625 133.773438 L 92.535156 133.773438 L 92.535156 114.082031 C 92.535156 94.59375 108.386719 78.742188 127.875 78.742188 C 147.363281 78.742188 163.21875 94.59375 163.21875 114.082031 L 163.21875 133.773438 L 152.34375 133.773438 C 146.339844 133.773438 141.472656 138.644531 141.472656 144.648438 L 141.472656 114.082031 C 141.472656 106.585938 135.375 100.484375 127.875 100.484375 C 120.378906 100.484375 114.28125 106.585938 114.28125 114.082031 L 114.28125 144.648438 C 114.28125 150.652344 109.410156 155.519531 103.40625 155.519531 " fill-opacity="1" fill-rule="nonzero"/></g><path fill="#026c0d" d="M 103.40625 155.519531 C 97.402344 155.519531 92.535156 150.652344 92.535156 144.648438 L 92.535156 133.773438 L 103.40625 133.773438 C 109.410156 133.773438 114.28125 138.644531 114.28125 144.648438 C 114.28125 150.652344 109.410156 155.519531 103.40625 155.519531 " fill-opacity="1" fill-rule="nonzero"/><g clip-path="url(#2c6f495266)"><path fill="#ea4f93" d="M 127.875 259.488281 C 108.386719 259.488281 92.535156 243.636719 92.535156 224.148438 L 92.535156 204.457031 L 103.40625 204.457031 C 109.410156 204.457031 114.28125 199.585938 114.28125 193.582031 L 114.28125 224.148438 C 114.28125 231.644531 120.378906 237.746094 127.875 237.746094 C 135.375 237.746094 141.472656 231.644531 141.472656 224.148438 L 141.472656 193.582031 C 141.472656 187.578125 146.339844 182.710938 152.34375 182.710938 C 146.339844 182.710938 141.472656 187.578125 141.472656 193.582031 C 141.472656 199.585938 146.339844 204.457031 152.34375 204.457031 L 163.21875 204.457031 L 163.21875 224.148438 C 163.21875 243.636719 147.363281 259.488281 127.875 259.488281 " fill-opacity="1" fill-rule="nonzero"/></g><path fill="#022e27" d="M 103.40625 204.457031 L 92.535156 204.457031 L 92.535156 193.582031 C 92.535156 187.578125 97.402344 182.710938 103.40625 182.710938 C 109.410156 182.710938 114.28125 187.578125 114.28125 193.582031 C 114.28125 199.585938 109.410156 204.457031 103.40625 204.457031 " fill-opacity="1" fill-rule="nonzero"/><g clip-path="url(#7850c0307a)"><path fill="#28beea" d="M 182.910156 204.457031 L 163.21875 204.457031 L 163.21875 193.582031 C 163.21875 187.578125 158.347656 182.710938 152.34375 182.710938 L 182.910156 182.710938 C 190.40625 182.710938 196.503906 176.609375 196.503906 169.117188 C 196.503906 161.621094 190.40625 155.519531 182.910156 155.519531 L 152.34375 155.519531 C 146.339844 155.519531 141.472656 150.652344 141.472656 144.648438 C 141.472656 150.652344 146.339844 155.519531 152.34375 155.519531 C 158.347656 155.519531 163.21875 150.652344 163.21875 144.648438 L 163.21875 133.773438 L 182.910156 133.773438 C 202.398438 133.773438 218.25 149.628906 218.25 169.117188 C 218.25 188.601562 202.398438 204.457031 182.910156 204.457031 " fill-opacity="1" fill-rule="nonzero"/></g><path fill="#288a2e" d="M 152.34375 155.519531 C 146.339844 155.519531 141.472656 150.652344 141.472656 144.648438 C 141.472656 138.644531 146.339844 133.773438 152.34375 133.773438 L 163.21875 133.773438 L 163.21875 144.648438 C 163.21875 150.652344 158.347656 155.519531 152.34375 155.519531 " fill-opacity="1" fill-rule="nonzero"/><path fill="#253b87" d="M 163.21875 204.457031 L 152.34375 204.457031 C 146.339844 204.457031 141.472656 199.585938 141.472656 193.582031 C 141.472656 187.578125 146.339844 182.710938 152.34375 182.710938 C 158.347656 182.710938 163.21875 187.578125 163.21875 193.582031 L 163.21875 204.457031 " fill-opacity="1" fill-rule="nonzero"/><g fill="#022179" fill-opacity="1"><g transform="translate(218.82037, 179.753513)"><g><path d="M 11.515625 0.28125 C 10.035156 0.28125 8.671875 0.0390625 7.421875 -0.4375 C 6.171875 -0.925781 5.078125 -1.625 4.140625 -2.53125 C 3.210938 -3.4375 2.492188 -4.523438 1.984375 -5.796875 C 1.472656 -7.066406 1.21875 -8.488281 1.21875 -10.0625 C 1.21875 -11.644531 1.472656 -13.070312 1.984375 -14.34375 C 2.492188 -15.613281 3.210938 -16.695312 4.140625 -17.59375 C 5.078125 -18.5 6.171875 -19.191406 7.421875 -19.671875 C 8.671875 -20.148438 10.035156 -20.390625 11.515625 -20.390625 C 13.003906 -20.390625 14.378906 -20.144531 15.640625 -19.65625 C 16.910156 -19.175781 18.003906 -18.476562 18.921875 -17.5625 C 19.847656 -16.644531 20.550781 -15.550781 21.03125 -14.28125 L 17.125 -12.859375 C 16.832031 -13.640625 16.410156 -14.304688 15.859375 -14.859375 C 15.304688 -15.410156 14.660156 -15.832031 13.921875 -16.125 C 13.179688 -16.414062 12.378906 -16.5625 11.515625 -16.5625 C 10.648438 -16.5625 9.84375 -16.410156 9.09375 -16.109375 C 8.351562 -15.816406 7.707031 -15.390625 7.15625 -14.828125 C 6.601562 -14.273438 6.171875 -13.597656 5.859375 -12.796875 C 5.546875 -11.992188 5.390625 -11.082031 5.390625 -10.0625 C 5.390625 -9.050781 5.546875 -8.140625 5.859375 -7.328125 C 6.171875 -6.523438 6.601562 -5.84375 7.15625 -5.28125 C 7.707031 -4.726562 8.351562 -4.300781 9.09375 -4 C 9.84375 -3.707031 10.648438 -3.5625 11.515625 -3.5625 C 12.378906 -3.5625 13.179688 -3.707031 13.921875 -4 C 14.660156 -4.289062 15.304688 -4.710938 15.859375 -5.265625 C 16.410156 -5.816406 16.832031 -6.484375 17.125 -7.265625 L 21.03125 -5.84375 C 20.550781 -4.570312 19.847656 -3.476562 18.921875 -2.5625 C 18.003906 -1.65625 16.910156 -0.953125 15.640625 -0.453125 C 14.378906 0.0351562 13.003906 0.28125 11.515625 0.28125 Z M 11.515625 0.28125 "/></g></g></g><g fill="#022179" fill-opacity="1"><g transform="translate(241.633206, 179.753513)"><g><path d="M 16.0625 0 L 14.609375 -4.15625 L 6.15625 -4.15625 L 4.6875 0 L 0.421875 0 L 7.828125 -20.125 L 12.9375 -20.125 L 20.34375 0 Z M 7.375 -7.640625 L 13.375 -7.640625 L 10.390625 -16.171875 Z M 7.375 -7.640625 "/></g></g></g><g fill="#022179" fill-opacity="1"><g transform="translate(263.360146, 179.753513)"><g><path d="M 13.234375 0 L 8.546875 -7.421875 L 6.78125 -7.421875 L 6.78125 0 L 2.609375 0 L 2.609375 -20.125 L 9.21875 -20.125 C 10.070312 -20.125 10.800781 -20.085938 11.40625 -20.015625 C 12.019531 -19.941406 12.546875 -19.84375 12.984375 -19.71875 C 13.429688 -19.59375 13.828125 -19.441406 14.171875 -19.265625 C 15.160156 -18.742188 15.867188 -18.019531 16.296875 -17.09375 C 16.722656 -16.175781 16.9375 -15.117188 16.9375 -13.921875 C 16.9375 -12.660156 16.71875 -11.546875 16.28125 -10.578125 C 15.84375 -9.617188 15.113281 -8.867188 14.09375 -8.328125 C 13.71875 -8.117188 13.289062 -7.945312 12.8125 -7.8125 L 18.171875 0 Z M 6.78125 -16.625 L 6.78125 -10.703125 L 8.625 -10.703125 C 9.425781 -10.703125 10.0625 -10.734375 10.53125 -10.796875 C 11.007812 -10.859375 11.398438 -10.992188 11.703125 -11.203125 C 12.390625 -11.679688 12.734375 -12.5 12.734375 -13.65625 C 12.734375 -14.226562 12.648438 -14.707031 12.484375 -15.09375 C 12.316406 -15.488281 12.085938 -15.804688 11.796875 -16.046875 C 11.472656 -16.285156 11.066406 -16.441406 10.578125 -16.515625 C 10.085938 -16.585938 9.4375 -16.625 8.625 -16.625 Z M 6.78125 -16.625 "/></g></g></g><g fill="#022179" fill-opacity="1"><g transform="translate(283.249418, 179.753513)"><g><path d="M 14.265625 -16.4375 L 6.8125 -16.4375 L 6.8125 -11.875 L 13.421875 -11.875 L 13.421875 -8.25 L 6.8125 -8.25 L 6.8125 -3.6875 L 14.265625 -3.6875 L 14.265625 0 L 2.609375 0 L 2.609375 -20.125 L 14.265625 -20.125 Z M 14.265625 -16.4375 "/></g></g></g><g fill="#022179" fill-opacity="1"><g transform="translate(300.18728, 179.753513)"><g><path d="M 14.25 -19.203125 C 15.1875 -18.703125 15.867188 -18.007812 16.296875 -17.125 C 16.722656 -16.238281 16.9375 -15.195312 16.9375 -14 C 16.9375 -12.800781 16.722656 -11.703125 16.296875 -10.703125 C 15.878906 -9.710938 15.203125 -8.929688 14.265625 -8.359375 C 13.722656 -7.984375 13.050781 -7.695312 12.25 -7.5 C 11.457031 -7.3125 10.445312 -7.21875 9.21875 -7.21875 L 6.78125 -7.21875 L 6.78125 0 L 2.609375 0 L 2.609375 -20.125 L 9.21875 -20.125 C 10.4375 -20.125 11.441406 -20.039062 12.234375 -19.875 C 13.023438 -19.71875 13.695312 -19.492188 14.25 -19.203125 Z M 11.875 -11.40625 C 12.144531 -11.632812 12.351562 -11.9375 12.5 -12.3125 C 12.65625 -12.6875 12.734375 -13.164062 12.734375 -13.75 C 12.734375 -14.3125 12.648438 -14.773438 12.484375 -15.140625 C 12.316406 -15.503906 12.097656 -15.796875 11.828125 -16.015625 C 11.484375 -16.285156 11.050781 -16.453125 10.53125 -16.515625 C 10.007812 -16.585938 9.375 -16.625 8.625 -16.625 L 6.78125 -16.625 L 6.78125 -10.703125 L 8.625 -10.703125 C 9.394531 -10.703125 10.039062 -10.742188 10.5625 -10.828125 C 11.09375 -10.921875 11.53125 -11.113281 11.875 -11.40625 Z M 11.875 -11.40625 "/></g></g></g><g fill="#022179" fill-opacity="1"><g transform="translate(319.032419, 179.753513)"><g><path d="M 6.78125 -3.6875 L 13.09375 -3.6875 L 13.09375 0 L 2.609375 0 L 2.609375 -20.125 L 6.78125 -20.125 Z M 6.78125 -3.6875 "/></g></g></g><g fill="#022179" fill-opacity="1"><g transform="translate(333.673188, 179.753513)"><g><path d="M 10.046875 0.28125 C 8.941406 0.28125 7.914062 0.140625 6.96875 -0.140625 C 6.019531 -0.429688 5.1875 -0.875 4.46875 -1.46875 C 3.75 -2.070312 3.1875 -2.835938 2.78125 -3.765625 C 2.382812 -4.691406 2.1875 -5.785156 2.1875 -7.046875 L 2.1875 -20.125 L 6.359375 -20.125 L 6.359375 -7.609375 C 6.359375 -6.585938 6.523438 -5.769531 6.859375 -5.15625 C 7.191406 -4.539062 7.632812 -4.09375 8.1875 -3.8125 C 8.738281 -3.539062 9.359375 -3.40625 10.046875 -3.40625 C 10.742188 -3.40625 11.375 -3.546875 11.9375 -3.828125 C 12.5 -4.109375 12.941406 -4.554688 13.265625 -5.171875 C 13.597656 -5.785156 13.765625 -6.597656 13.765625 -7.609375 L 13.765625 -20.125 L 17.953125 -20.125 L 17.953125 -7.046875 C 17.953125 -5.785156 17.75 -4.691406 17.34375 -3.765625 C 16.9375 -2.835938 16.375 -2.070312 15.65625 -1.46875 C 14.9375 -0.875 14.097656 -0.429688 13.140625 -0.140625 C 12.179688 0.140625 11.148438 0.28125 10.046875 0.28125 Z M 10.046875 0.28125 "/></g></g></g><g fill="#022179" fill-opacity="1"><g transform="translate(354.773644, 179.753513)"><g><path d="M 9.296875 0.28125 C 8.210938 0.28125 7.203125 0.15625 6.265625 -0.09375 C 5.328125 -0.351562 4.488281 -0.734375 3.75 -1.234375 C 3.007812 -1.734375 2.398438 -2.34375 1.921875 -3.0625 C 1.453125 -3.789062 1.140625 -4.625 0.984375 -5.5625 L 5.125 -6.515625 C 5.414062 -5.367188 5.929688 -4.519531 6.671875 -3.96875 C 7.421875 -3.414062 8.320312 -3.140625 9.375 -3.140625 C 9.96875 -3.140625 10.5 -3.222656 10.96875 -3.390625 C 11.445312 -3.554688 11.820312 -3.816406 12.09375 -4.171875 C 12.363281 -4.523438 12.492188 -4.972656 12.484375 -5.515625 C 12.484375 -6.003906 12.351562 -6.414062 12.09375 -6.75 C 11.832031 -7.09375 11.484375 -7.382812 11.046875 -7.625 C 10.617188 -7.863281 10.125 -8.078125 9.5625 -8.265625 C 9 -8.453125 8.410156 -8.640625 7.796875 -8.828125 C 7.203125 -9.015625 6.613281 -9.210938 6.03125 -9.421875 C 5.445312 -9.628906 4.894531 -9.875 4.375 -10.15625 C 3.851562 -10.445312 3.390625 -10.789062 2.984375 -11.1875 C 2.578125 -11.59375 2.257812 -12.070312 2.03125 -12.625 C 1.800781 -13.175781 1.6875 -13.828125 1.6875 -14.578125 C 1.6875 -15.503906 1.863281 -16.328125 2.21875 -17.046875 C 2.570312 -17.765625 3.066406 -18.375 3.703125 -18.875 C 4.347656 -19.375 5.101562 -19.75 5.96875 -20 C 6.832031 -20.257812 7.769531 -20.390625 8.78125 -20.390625 C 9.664062 -20.390625 10.535156 -20.296875 11.390625 -20.109375 C 12.242188 -19.921875 13.035156 -19.617188 13.765625 -19.203125 C 14.492188 -18.785156 15.113281 -18.238281 15.625 -17.5625 C 16.132812 -16.894531 16.488281 -16.078125 16.6875 -15.109375 L 12.90625 -14.171875 C 12.59375 -15.140625 12.101562 -15.847656 11.4375 -16.296875 C 10.78125 -16.753906 9.976562 -16.984375 9.03125 -16.984375 C 8.476562 -16.984375 7.960938 -16.898438 7.484375 -16.734375 C 7.015625 -16.578125 6.632812 -16.332031 6.34375 -16 C 6.0625 -15.675781 5.921875 -15.253906 5.921875 -14.734375 C 5.921875 -14.316406 6.03125 -13.960938 6.25 -13.671875 C 6.476562 -13.378906 6.789062 -13.128906 7.1875 -12.921875 C 7.582031 -12.722656 8.035156 -12.539062 8.546875 -12.375 C 9.066406 -12.21875 9.609375 -12.054688 10.171875 -11.890625 C 10.785156 -11.703125 11.40625 -11.5 12.03125 -11.28125 C 12.664062 -11.0625 13.265625 -10.800781 13.828125 -10.5 C 14.390625 -10.195312 14.894531 -9.832031 15.34375 -9.40625 C 15.800781 -8.976562 16.160156 -8.460938 16.421875 -7.859375 C 16.679688 -7.265625 16.8125 -6.554688 16.8125 -5.734375 C 16.8125 -4.773438 16.625 -3.921875 16.25 -3.171875 C 15.882812 -2.429688 15.363281 -1.800781 14.6875 -1.28125 C 14.019531 -0.769531 13.226562 -0.378906 12.3125 -0.109375 C 11.394531 0.148438 10.390625 0.28125 9.296875 0.28125 Z M 9.296875 0.28125 "/></g></g></g></svg>