<svg xmlns="http://www.w3.org/2000/svg" xmlns:xlink="http://www.w3.org/1999/xlink" width="324" zoomAndPan="magnify" viewBox="0 0 242.87999 241.499998" height="322" preserveAspectRatio="xMidYMid meet" version="1.0"><defs><filter x="0%" y="0%" width="100%" height="100%" id="ad97887f82"><feColorMatrix values="0 0 0 0 1 0 0 0 0 1 0 0 0 0 1 0 0 0 1 0" color-interpolation-filters="sRGB"/></filter><clipPath id="6c30d7d0ee"><path d="M 0.191406 0 L 242.570312 0 L 242.570312 241 L 0.191406 241 Z M 0.191406 0 " clip-rule="nonzero"/></clipPath><clipPath id="0ed60d2e53"><path d="M 70.585938 76.007812 L 171.980469 76.007812 L 171.980469 164.855469 L 70.585938 164.855469 Z M 70.585938 76.007812 " clip-rule="nonzero"/></clipPath><clipPath id="de2347dd5e"><path d="M 70.585938 102.222656 C 70.585938 130.441406 121.230469 164.855469 121.230469 164.855469 C 121.230469 164.855469 171.648438 130.195312 171.871094 102.222656 C 171.871094 87.777344 160.101562 76.007812 145.660156 76.007812 C 134.558594 76.007812 124.996094 83.117188 121.230469 92.882812 C 117.460938 83.117188 107.898438 76.007812 96.796875 76.007812 C 82.355469 76.007812 70.585938 87.777344 70.585938 102.222656 " clip-rule="nonzero"/></clipPath><mask id="11c6bbda58"><g filter="url(#ad97887f82)"><rect x="-24.287999" width="291.455988" fill="#000000" y="-24.15" height="289.799997" fill-opacity="0.82"/></g></mask><clipPath id="4cdc74591c"><path d="M 0.925781 0.148438 L 81.621094 0.148438 L 81.621094 70.855469 L 0.925781 70.855469 Z M 0.925781 0.148438 " clip-rule="nonzero"/></clipPath><clipPath id="56d4fdba81"><path d="M 0.925781 21.007812 C 0.925781 43.464844 41.230469 70.855469 41.230469 70.855469 C 41.230469 70.855469 81.355469 43.273438 81.53125 21.007812 C 81.53125 9.515625 72.167969 0.148438 60.671875 0.148438 C 51.835938 0.148438 44.226562 5.804688 41.230469 13.578125 C 38.230469 5.804688 30.621094 0.148438 21.785156 0.148438 C 10.292969 0.148438 0.925781 9.515625 0.925781 21.007812 " clip-rule="nonzero"/></clipPath><clipPath id="83e1e5f553"><rect x="0" width="82" y="0" height="72"/></clipPath></defs><g clip-path="url(#6c30d7d0ee)"><path fill="#ffffff" d="M 0.191406 0 L 242.6875 0 L 242.6875 241 L 0.191406 241 Z M 0.191406 0 " fill-opacity="1" fill-rule="nonzero"/></g><path fill="#8c52ff" d="M 46.234375 108.824219 C 46.234375 69.132812 78.410156 36.957031 118.101562 36.957031 C 136.246094 36.957031 152.820312 43.6875 165.46875 54.78125 C 151.710938 33.453125 127.738281 19.328125 100.472656 19.328125 C 57.789062 19.328125 23.183594 53.933594 23.183594 96.621094 C 23.183594 133.707031 49.304688 164.683594 84.152344 172.179688 C 61.582031 160.058594 46.234375 136.234375 46.234375 108.824219 " fill-opacity="1" fill-rule="nonzero"/><path fill="#1b9ce4" d="M 192.328125 0.535156 C 190.910156 0.00390625 190.28125 1.484375 190.039062 3.476562 C 189.5625 7.363281 191.121094 11.214844 194.066406 13.792969 C 224.882812 40.796875 218.902344 106.949219 198.761719 103.003906 C 185.539062 100.417969 199.621094 61.113281 188.601562 59.777344 C 181.277344 58.886719 174.773438 77.105469 175.238281 101.125 C 175.503906 114.871094 179.917969 126.214844 183.792969 136.058594 C 189.414062 150.316406 184.25 166.644531 171.332031 174.886719 C 130.222656 201.125 75.007812 196.289062 39.101562 160.378906 C 20.128906 141.40625 9.835938 117.046875 8.210938 92.222656 C 0.28125 128.980469 10.632812 168.890625 39.273438 197.410156 C 75.371094 233.363281 133.011719 240.84375 177.132812 215.367188 C 219.011719 191.179688 236.527344 141.414062 239.019531 95.144531 C 242.191406 36.289062 208.410156 6.59375 192.328125 0.535156 Z M 186.554688 32.738281 C 202.5625 46.808594 208.617188 71.445312 207.90625 91.292969 C 210.417969 85.140625 211.78125 76.128906 211.46875 66.480469 C 211.054688 53.582031 207.984375 41.503906 202.847656 31.714844 C 196.207031 25.324219 189.664062 21.285156 184.769531 19.4375 C 183.316406 18.894531 182.691406 20.453125 182.460938 22.515625 C 182.03125 26.386719 183.632812 30.171875 186.554688 32.738281 " fill-opacity="1" fill-rule="nonzero"/><g clip-path="url(#0ed60d2e53)"><g clip-path="url(#de2347dd5e)"><path fill="#1b9ce4" d="M 70.585938 76.007812 L 171.78125 76.007812 L 171.78125 164.855469 L 70.585938 164.855469 Z M 70.585938 76.007812 " fill-opacity="1" fill-rule="nonzero"/></g></g><g mask="url(#11c6bbda58)"><g transform="matrix(1, 0, 0, 1, 80, 94)"><g clip-path="url(#83e1e5f553)"><g clip-path="url(#4cdc74591c)"><g clip-path="url(#56d4fdba81)"><path fill="#8c52ff" d="M 0.925781 0.148438 L 81.460938 0.148438 L 81.460938 70.855469 L 0.925781 70.855469 Z M 0.925781 0.148438 " fill-opacity="1" fill-rule="nonzero"/></g></g></g></g></g></svg>